<mxfile host="app.diagrams.net" modified="2023-05-30T11:45:34.928Z" agent="Mozilla/5.0 (X11; Linux x86_64) AppleWebKit/537.36 (KHTML, like Gecko) Chrome/112.0.0.0 Safari/537.36" etag="N-2v1GH5yuK2Of3RqEux" version="21.3.5" type="github">
  <diagram name="Page-1" id="9361dd3d-8414-5efd-6122-117bd74ce7a7">
    <mxGraphModel dx="959" dy="1148" grid="1" gridSize="10" guides="1" tooltips="1" connect="1" arrows="1" fold="1" page="0" pageScale="1.5" pageWidth="826" pageHeight="1169" background="none" math="0" shadow="0">
      <root>
        <mxCell id="0" />
        <mxCell id="1" parent="0" />
        <mxCell id="71" value="rt submit_changes" style="rounded=1;fontStyle=1;fillColor=#FFD966;strokeColor=none" parent="1" vertex="1">
          <mxGeometry x="50" y="20" width="150" height="30" as="geometry" />
        </mxCell>
      </root>
    </mxGraphModel>
  </diagram>
</mxfile>
